<?xml version="1.0" encoding="utf-8"?>
<!-- Generator: Adobe Illustrator 23.0.3, SVG Export Plug-In . SVG Version: 6.00 Build 0)  -->
<svg version="1.1" id="圖層_1" xmlns="http://www.w3.org/2000/svg" xmlns:xlink="http://www.w3.org/1999/xlink" x="0px" y="0px"
	 viewBox="0 0 500 200" style="enable-background:new 0 0 500 200;" xml:space="preserve">
<style type="text/css">
	.st0{enable-background:new    ;}
	.st1{fill:#858585;}
</style>
<title>noImg</title>
<g class="st0">
	<path class="st1" d="M222.5,48.2h-11.6v2.1h9.4v12.8h-9.4v2.2h9.6v3.7h-9.6v2.9h-4.7v-2.9h-12.6v-3.7h12.6v-2.2h-9.5V50.3h9.5v-2.1
		h-11.8v-3.8h11.8v-2.8h4.7v2.8h11.6V48.2z M240.4,93.9h-5.4v-2.2H205v2.2h-5.2V73.7h40.6V93.9z M206.2,55.3v-2h-5v2H206.2z
		 M206.2,60.1v-2h-5v2H206.2z M235.1,80.6v-2.8H205v2.8H235.1z M235.1,87.4v-2.9H205v2.9H235.1z M215.8,55.3v-2h-4.8v2H215.8z
		 M215.8,60.1v-2h-4.8v2H215.8z M245.9,58h-4.6v13.9h-5.2V58H230c-0.4,5.9-1.9,10.8-4.6,14.6l-4.1-3.4c2.4-4,3.5-8.9,3.5-14.8V45
		c6.9-0.8,12.7-2.2,17.2-4l3.6,4c-3.3,1.5-8.5,2.8-15.6,4v4.2h15.9V58z"/>
	<path class="st1" d="M306,78.8h-52.1V74h7.6v-8.1h-6.6V61h6.6v-6.2c-0.9,0.8-2.3,1.9-4.1,3.4l-4-4.1c5.7-4,9.9-8.4,12.8-13.2
		l5.6,1.6c-0.9,1.7-1.9,3.3-3.2,4.7h35.8v5h-40.3c-0.5,0.6-1.3,1.4-2.5,2.5h5.2V61h5.6v-6.4h5.1V61h5.9v-6.4h5V61h5.9v-6.4h5.2V61
		h5.3v4.9h-5.3V74h6.4V78.8z M265.4,82.5c-1.9,4.7-4.2,8.7-6.9,12.1l-5-3.2c2.2-2.5,4.4-6.2,6.7-11.1L265.4,82.5z M272.4,74v-8.1
		h-5.6V74H272.4z M278,92.6l-5.3,1.6c-0.7-3.7-1.8-7.5-3.3-11.5l5.1-1.8C275.8,84,277,87.9,278,92.6z M283.4,74v-8.1h-5.9V74H283.4z
		 M292.2,92.2l-5.2,2.1c-1.2-3.8-2.8-7.6-4.9-11.4l5.2-2C289.6,85.2,291.3,89,292.2,92.2z M294.4,74v-8.1h-5.9V74H294.4z M306.4,92
		l-5.3,2.3c-1.6-4.1-3.8-8.1-6.6-12l5.2-2.3C302.5,83.9,304.7,87.9,306.4,92z"/>
</g>
<g class="st0">
	<path class="st1" d="M243.9,159.1h-5.3V156H201v3h-5.2v-51.4h48V159.1z M238.6,151.3v-39.1H201v39.1H238.6z M236.7,128.6H203v-3.7
		h14.4v-2h-12v-8.8h28.9v8.8h-11.9v2h14.3V128.6z M235,149.3h-30.3v-18.7H235V149.3z M230,145.8v-11.6h-20.2v11.6H230z M229.1,119.7
		v-2.4h-18.5v2.4H229.1z M226.8,143.9h-13.9V136h13.9V143.9z M222.3,141v-2.1h-4.9v2.1H222.3z"/>
	<path class="st1" d="M298.4,158.9h-5.6v-19.3h-23.7c-0.9,6.8-3.8,13.2-8.7,19.1l-4.7-3.3c5.7-6.5,8.6-15.7,8.6-27.5v-20.6h5.5v12.2
		h20.9v-12.9h5.6v18h-26.5c0.1,3.2,0,6.4-0.3,9.7h28.9V158.9z"/>
</g>
</svg>
